<svg width="300" height="300" viewBox="0 0 300 300" fill="none" xmlns="http://www.w3.org/2000/svg">
<rect width="300" height="300" rx="20" fill="#27E8A2"/>
<path d="M64.0729 135.84H62.1529V117.6H64.0729V92.64H65.9929V67.68H67.9129V63.84H85.1929V65.76H87.1129V69.6H89.0329V75.36H90.9529V83.04H92.8729V88.8H94.7929V96.48H96.7129V102.24H98.6329V109.92H100.553V115.68H103.433V109.92H105.353V102.24H107.273V96.48H109.193V88.8H111.113V83.04H113.033V75.36H114.953V69.6H116.873V65.76H118.793V63.84H136.073V67.68H137.993V92.64H139.913V117.6H141.833V135.936H139.913V137.76H132.233V135.936H130.313V115.68H128.393V90.72H126.473V77.28H124.553V84.96H122.633V90.72H120.713V98.4H118.793V104.16H116.873V111.84H114.953V117.6H113.033V125.28H111.113V132H109.193V135.84H107.273V137.76H96.7129V135.84H94.7929V132H92.8729V125.28H90.9529V117.6H89.0329V111.84H87.1129V104.16H85.1929V98.4H83.2729V90.72H81.3529V84.96H79.4329V77.28H77.5129V90.72H75.5929V115.68H73.6729V135.84H71.7529V137.76H64.0729V135.84Z" fill="white"/>
<path d="M219.904 90.912H217.024V85.152H215.104V81.312H212.224V78.432H209.344V75.552H205.504V73.632H190.528V75.552H186.688V78.432H183.808V81.312H180.928V85.152H179.008V90.912H176.128V110.688H179.008V116.448H180.928V120.288H183.808V123.168H186.688V126.048H190.528V127.968H205.504V126.048H209.344V123.168H212.224V120.288H215.104V116.448H217.024V110.688H219.904V90.912ZM163.648 110.112V91.488H165.568V83.808H167.488V79.968H169.408V76.128H171.328V74.208H173.248V72.288H175.168V70.368H177.088V68.448H179.008V66.528H182.848V64.608H188.608V62.688H207.424V64.608H213.184V66.528H217.024V68.448H218.944V70.368H220.864V72.288H222.784V74.208H224.704V76.128H226.624V79.968H228.544V83.808H230.464V91.488H232.384V110.112H230.464V117.792H228.544V121.632H226.624V125.472H224.704V127.392H222.784V129.312H220.864V131.232H218.944V133.152H217.024V135.072H213.184V136.992H207.424V138.912H188.608V136.992H182.848V135.072H179.008V133.152H177.088V131.232H175.168V129.312H173.248V127.392H171.328V125.472H169.408V121.632H167.488V117.792H165.568V110.112H163.648Z" fill="white"/>
<path d="M73.9425 168.864V161.76H75.8625V159.84H128.087V161.76H130.007V168.864H128.087V170.784H108.023V231.84H106.103V233.76H98.0385V231.84H96.1185V170.784H75.8625V168.864H73.9425Z" fill="white"/>
<path d="M214.358 187.68H212.438V190.56H210.518V192.48H208.598V195.36H206.678V199.2H204.086V231.84H202.166V233.76H194.102V231.84H192.182V201.12H190.358V198.24H187.478V195.36H185.558V192.48H183.638V189.6H181.718V186.72H179.798V183.84H177.878V181.92H175.958V179.04H174.038V176.16H172.118V173.28H170.198V170.4H168.278V167.52H166.358V164.64H168.278V162.72H170.198V160.8H173.078V158.88H175.958V160.8H177.878V162.72H179.798V165.6H181.718V168.48H183.638V171.36H185.558V174.24H187.478V177.12H189.398V180H191.318V182.88H193.238V185.76H195.158V187.68H197.078V190.56H198.998V187.68H200.918V184.8H202.838V181.92H204.758V180H206.678V177.12H208.598V174.24H210.518V171.36H212.438V168.48H214.358V166.56H216.278V163.68H218.198V160.8H220.118V158.88H223.958V160.8H225.878V162.72H227.798V164.64H229.718V167.52H227.798V169.44H225.878V172.32H223.958V174.24H222.038V177.12H220.118V180H218.198V181.92H216.278V184.8H214.358V187.68Z" fill="white"/>
</svg>
